<svg width="18" height="22" viewBox="0 0 18 22" fill="none" xmlns="http://www.w3.org/2000/svg">
<g clip-path="url(#clip0)">
<path d="M9.09278 22C8.90722 22 8.72165 21.824 8.53608 21.824C8.16495 21.472 0 13.2 0 8.624C0 3.872 4.08247 0 9.09278 0C14.1031 0 18.1856 3.872 18.1856 8.624C18.1856 13.2 10.0206 21.472 9.83505 21.824C9.46392 22 9.27835 22 9.09278 22ZM9.09278 1.584C5.01031 1.584 1.6701 4.752 1.6701 8.624C1.6701 11.616 6.49485 17.424 9.09278 20.24C11.6907 17.6 16.5155 11.616 16.5155 8.624C16.5155 4.752 13.1753 1.584 9.09278 1.584Z" fill="white"/>
<path d="M9.09322 11.968C6.86641 11.968 5.01074 10.208 5.01074 8.096C5.01074 5.984 6.86641 4.224 9.09322 4.224C11.32 4.224 13.1757 5.984 13.1757 8.096C13.1757 10.384 11.32 11.968 9.09322 11.968ZM9.09322 5.808C7.79425 5.808 6.68085 6.864 6.68085 8.096C6.49528 9.504 7.60868 10.56 9.09322 10.56C10.3922 10.56 11.5056 9.504 11.5056 8.272C11.5056 6.864 10.3922 5.808 9.09322 5.808Z" fill="white"/>
</g>
<defs>
<clipPath id="clip0">
<rect width="18" height="22" fill="white"/>
</clipPath>
</defs>
</svg>
