<svg width="18" height="22" viewBox="0 0 18 22" fill="none" xmlns="http://www.w3.org/2000/svg">
<path d="M16.0967 15.4173L15.9236 15.0709C15.4044 14.5512 14.1928 13.3386 12.6351 13.5118C11.9428 13.5118 11.2505 14.2047 10.7313 14.7244C10.5582 14.8976 10.3851 14.8976 10.2121 15.0709C8.13514 13.5118 6.75053 11.4331 6.05822 8.83464L6.2313 8.66141C6.75053 8.31495 7.61591 7.79527 7.96207 6.92913C8.30822 6.06299 8.30822 5.02362 8.13514 4.15747V3.81102C7.78899 2.94488 7.61591 1.73228 6.9236 1.03936C6.05822 0.173222 4.6736 -6.27339e-06 3.63514 0.519679C2.07745 1.21259 0.865911 2.59842 0.519757 4.3307C0.34668 4.85039 0.34668 5.37007 0.34668 5.71653C0.34668 6.58267 0.519757 7.62204 0.865911 8.83464C0.865911 9.70078 1.21206 10.3937 1.38514 11.0866C2.25053 13.5118 3.63514 15.5905 5.36591 17.4961C6.2313 18.5354 7.26976 19.4016 8.30822 19.9213L8.65437 20.0945C9.69283 20.7874 10.7313 21.4803 12.289 21.6535C12.4621 21.6535 12.6351 21.6535 12.8082 21.6535C14.539 21.6535 16.0967 20.9606 17.1351 19.748C17.4813 19.2283 17.8275 18.7087 17.8275 18.0157C17.8275 16.9764 16.789 15.937 16.0967 15.4173ZM16.2698 19.2283C15.4044 20.4409 13.6736 20.9606 12.289 20.7874C10.9044 20.6142 9.86591 19.9213 8.82745 19.2283C7.78899 18.5354 6.9236 17.8425 6.05822 16.9764C4.32745 15.2441 3.11591 13.1653 2.25053 10.9134C1.90437 10.0472 1.7313 9.35433 1.55822 8.66141C1.21206 7.79527 1.03899 6.7559 1.21206 5.88976C1.21206 5.5433 1.21206 5.02362 1.38514 4.67716C1.7313 3.29133 2.59668 1.90551 3.9813 1.38582C4.84668 1.03936 5.71206 1.03936 6.40437 1.73228C6.9236 2.25196 7.09668 3.46456 7.26976 4.3307C7.44283 5.02362 7.44283 5.88976 7.26976 6.58267C6.75053 7.27558 6.05822 7.62204 5.53899 8.14173C5.19283 8.31495 5.01976 8.66141 5.19283 9.00787C6.05822 11.7795 7.44283 14.0315 9.69283 15.7638C10.039 15.937 10.2121 16.1102 10.5582 15.7638C11.0774 15.4173 11.9428 14.3779 12.6351 14.2047C13.8467 14.2047 14.539 15.0709 15.2313 15.5905C15.7505 16.2835 16.9621 16.9764 16.789 18.0157C16.789 18.5354 16.6159 18.8819 16.2698 19.2283Z" fill="white" stroke="white" stroke-width="0.5" stroke-miterlimit="10"/>
</svg>
